<?xml version="1.0" encoding="utf-8"?><svg viewBox="0 0 1792 1792" xmlns="http://www.w3.org/2000/svg" xmlns:xlink="http://www.w3.org/1999/xlink"><style>:root>svg{display:none}:root>svg:target{display:block}</style><svg fill="none" viewBox="0 0 18 28" id="arrow-left" xmlns="http://www.w3.org/2000/svg"><path d="M17.5 4L6.875 14 17.5 24l-2.125 4L.5 14 15.375 0 17.5 4z" fill="#CEB483"/></svg><svg fill="none" viewBox="0 0 18 28" id="arrow-right" xmlns="http://www.w3.org/2000/svg"><path d="M.5 24l10.625-10L.5 4l2.125-4L17.5 14 2.625 28 .5 24z" fill="#CEB483"/></svg><svg fill="none" viewBox="0 0 7 11" id="arrow-right-black" xmlns="http://www.w3.org/2000/svg"><path d="M1.617 10.3l4.966-4.8L1.617.7a.709.709 0 00-.984 1.021l3.913 3.78L.633 9.283a.709.709 0 00.984 1.02V10.3z" fill="#969696"/></svg><svg fill="none" viewBox="0 0 23 22" id="cart" xmlns="http://www.w3.org/2000/svg"><path d="M22.78 2.488a.84.84 0 00-.685-.356H3.832L3.628 1.9s1.091 2.074.56.233C3.656.292 2.038.418 1.519.418H.905a.837.837 0 00-.838.838C.067 1.72.537 2 1 2h1c.114 0 .64 1.973.878 2.795.238.822 3.005 10.258 3.005 10.258.101.362.43.611.807.611h11.39a.837.837 0 00.788-.554l4.015-11.857a.838.838 0 00-.103-.765zM17.49 13.99H7.326L4.659 3.81h16.244l-3.413 10.18zm-1.662 3.374a2.11 2.11 0 100 4.218 2.11 2.11 0 000-4.218zm-7.594 0a2.11 2.11 0 100 4.218 2.11 2.11 0 000-4.218z" fill="#2B2B2A"/></svg><svg fill="none" viewBox="0 0 9 7" id="check" xmlns="http://www.w3.org/2000/svg"><path d="M1 3.917L3.333 6.25 8.583 1" stroke="#fff"/></svg><svg fill="none" viewBox="0 0 21 21" id="close" xmlns="http://www.w3.org/2000/svg"><path d="M3.431 1.141A1.214 1.214 0 001.714 2.86L3.43 1.14zM18.714 19.86a1.214 1.214 0 101.717-1.718l-1.717 1.718zm1.145-17A1.214 1.214 0 0018.14 1.14L19.86 2.86zM1.14 18.14A1.214 1.214 0 102.86 19.86L1.14 18.14zM1.714 2.86l17 17 1.717-1.718-17-17L1.714 2.86zM18.14 1.14l-17 17L2.86 19.86l17-17L18.14 1.14z" fill="#2B2B2A"/></svg><svg fill="none" viewBox="0 0 30 19" id="delivery" xmlns="http://www.w3.org/2000/svg"><path d="M9.91 18.45a2.48 2.48 0 001.799-.787 2.76 2.76 0 00.746-1.898 2.76 2.76 0 00-.746-1.898 2.48 2.48 0 00-1.8-.786 2.48 2.48 0 00-1.8.786 2.76 2.76 0 00-.745 1.898c0 .712.268 1.395.745 1.898a2.48 2.48 0 001.8.787v0zm12.726 0a2.48 2.48 0 001.8-.787 2.761 2.761 0 00.746-1.898c0-.712-.268-1.395-.746-1.898a2.48 2.48 0 00-1.8-.786 2.48 2.48 0 00-1.8.786 2.76 2.76 0 00-.745 1.898c0 .712.268 1.395.745 1.898a2.48 2.48 0 001.8.787v0z" stroke="#2D4068" stroke-miterlimit="1.5" stroke-linecap="round" stroke-linejoin="round"/><path d="M12.518 15.765h6.3V1.805a.828.828 0 00-.224-.57.744.744 0 00-.54-.235H1m5.918 14.765H4.31c-.1 0-.2-.02-.292-.06a.763.763 0 01-.248-.175.844.844 0 01-.224-.57V8.383" stroke="#2D4068" stroke-linecap="round"/><path d="M2.273 5.027h5.09" stroke="#2D4068" stroke-linecap="round" stroke-linejoin="round"/><path d="M19.534 5.157l6.424-.13c.148 0 .292.045.416.13a.795.795 0 01.282.348l2.278 5.407a.843.843 0 01.066.326v3.722c0 .106-.02.21-.058.308a.81.81 0 01-.166.261.73.73 0 01-.54.236h-2.418m-7 0h1.273" stroke="#2D4068" stroke-linecap="round"/></svg><svg fill="none" viewBox="0 0 34 34" id="facebook" xmlns="http://www.w3.org/2000/svg"><g clip-path="url(#hclip0_11_2007)"><path d="M16.6 0C7.4 0 0 7.4 0 16.6c0 9.2 7.4 16.6 16.6 16.6 9.2 0 16.6-7.4 16.6-16.6C33.2 7.4 25.7 0 16.6 0zm6.5 8.4h-1.9c-1.9 0-2.5 1.2-2.5 2.4v2.9H23l-.7 4.5h-3.6V29h-4.8V18.1h-4v-4.5h3.9v-3.4c0-3.9 2.3-6 5.8-6 1.7 0 3.4.3 3.4.3v3.9h.1z" fill="#CEB483"/></g><defs><clipPath id="hclip0_11_2007"><path fill="#fff" d="M0 0h33.2v33.2H0z"/></clipPath></defs></svg><svg fill="none" viewBox="0 0 14 18" id="geo" xmlns="http://www.w3.org/2000/svg"><path d="M7 0a6.903 6.903 0 00-4.95 2.109A7.306 7.306 0 000 7.2c0 4.86 6.169 10.35 6.431 10.584a.86.86 0 001.138 0C7.875 17.55 14 12.06 14 7.2c0-1.91-.738-3.74-2.05-5.091A6.903 6.903 0 007 0zm0 15.885c-1.864-1.8-5.25-5.679-5.25-8.685a5.48 5.48 0 011.538-3.818A5.177 5.177 0 017 1.8c1.392 0 2.728.569 3.712 1.582A5.48 5.48 0 0112.25 7.2c0 3.006-3.386 6.894-5.25 8.685zM7 3.6c-.692 0-1.369.211-1.944.607a3.58 3.58 0 00-1.29 1.615 3.696 3.696 0 00-.199 2.08c.135.699.469 1.34.958 1.844.49.503 1.113.846 1.792.985a3.41 3.41 0 002.022-.205A3.523 3.523 0 009.91 9.2c.385-.592.59-1.288.59-2 0-.955-.369-1.87-1.025-2.546A3.451 3.451 0 007 3.6zM7 9c-.346 0-.684-.106-.972-.303a1.79 1.79 0 01-.645-.808 1.848 1.848 0 01-.1-1.04c.068-.35.235-.67.48-.922.244-.252.556-.423.896-.492.34-.07.69-.034 1.01.102.32.136.594.367.786.663a1.837 1.837 0 01-.218 2.273A1.726 1.726 0 017 9z" fill="#2B2B2A"/></svg><svg fill="none" viewBox="0 0 21 19" id="heart" xmlns="http://www.w3.org/2000/svg"><path d="M6.225 1.87C3.339 1.87 1 4.167 1 6.999c0 5.127 6.175 9.788 9.5 10.873 3.325-1.085 9.5-5.746 9.5-10.873 0-2.832-2.34-5.127-5.225-5.127-1.767 0-3.33.86-4.275 2.178a5.19 5.19 0 00-1.866-1.602 5.299 5.299 0 00-2.409-.576z" stroke="#2B2B2A" stroke-width="1.8" stroke-linecap="round" stroke-linejoin="round"/></svg><svg fill="none" viewBox="0 0 20 20" id="home" xmlns="http://www.w3.org/2000/svg"><path d="M10.443 1.433a.625.625 0 00-.886 0l-7.5 7.5a.625.625 0 00-.182.442v8.75a.625.625 0 00.625.625h5.625a.625.625 0 00.625-.625v-5h2.5v5a.625.625 0 00.625.625H17.5a.625.625 0 00.625-.625v-8.75a.626.626 0 00-.183-.442L16.25 7.24V3.125a.625.625 0 00-.625-.625h-1.25a.625.625 0 00-.625.625v1.616l-3.307-3.308zM3.125 17.5V9.634L10 2.759l6.875 6.875V17.5H12.5v-5a.625.625 0 00-.625-.625h-3.75a.625.625 0 00-.625.625v5H3.125z" fill="#969696"/></svg><svg fill="none" viewBox="0 0 34 34" id="instagram" xmlns="http://www.w3.org/2000/svg"><g clip-path="url(#lclip0_3_1964)" fill="#CEB483"><path d="M16.7 13.4c-1.7 0-3.2 1.4-3.2 3.2 0 1.8 1.4 3.2 3.2 3.2 1.7 0 3.2-1.4 3.2-3.2 0-1.8-1.5-3.2-3.2-3.2z"/><path d="M20.6 8.4h-8c-2.3 0-4.1 1.9-4.1 4.1v8c0 2.3 1.9 4.1 4.1 4.1h8c2.3 0 4.1-1.9 4.1-4.1v-8c.1-2.2-1.8-4.1-4.1-4.1zm-3.9 13.1c-2.7 0-5-2.2-5-5 0-2.7 2.2-5 5-5 2.7 0 5 2.2 5 5-.1 2.8-2.3 5-5 5zm5.2-9c-.7 0-1.2-.5-1.2-1.2s.5-1.2 1.2-1.2 1.2.5 1.2 1.2-.5 1.2-1.2 1.2z"/><path d="M16.6 0C7.4 0 0 7.4 0 16.6c0 9.2 7.4 16.6 16.6 16.6 9.2 0 16.6-7.4 16.6-16.6C33.2 7.4 25.7 0 16.6 0zm10 20.6c0 3.3-2.7 6-6 6h-8c-3.3 0-6-2.7-6-6v-8c0-3.3 2.7-6 6-6h8c3.3 0 6 2.7 6 6v8z"/></g><defs><clipPath id="lclip0_3_1964"><path fill="#fff" d="M0 0h33.2v33.2H0z"/></clipPath></defs></svg><svg fill="none" viewBox="0 0 22 22" id="profile" xmlns="http://www.w3.org/2000/svg"><path d="M11 .977c-5.523 0-10 4.477-10 10s4.477 10 10 10 10-4.477 10-10-4.477-10-10-10z" stroke="#2B2B2A" stroke-width="1.5" stroke-linecap="round" stroke-linejoin="round"/><path d="M3.271 17.323S5.5 14.477 11 14.477s7.73 2.846 7.73 2.846H3.271zM11 10.977a3 3 0 100-6 3 3 0 000 6v0z" stroke="#2B2B2A" stroke-width="1.5" stroke-linecap="round" stroke-linejoin="round"/></svg><svg fill="none" viewBox="0 0 17 21" id="safe" xmlns="http://www.w3.org/2000/svg"><path clip-rule="evenodd" d="M8.616 19.568s7.555-2.288 7.555-8.594c0-6.307.274-6.8-.332-7.406C15.233 2.962 9.607 1 8.616 1 7.626 1 2 2.962 1.394 3.568c-.606.607-.332 1.1-.332 7.406 0 6.306 7.554 8.594 7.554 8.594z" stroke="#2D4068" stroke-linecap="round" stroke-linejoin="round"/><path d="M6.058 9.985l1.863 1.866 3.838-3.84" stroke="#2D4068" stroke-linecap="round" stroke-linejoin="round"/></svg><svg fill="none" viewBox="0 0 14 14" id="search" xmlns="http://www.w3.org/2000/svg"><g clip-path="url(#oclip0_2_724)"><path d="M10.274 9.05a5.687 5.687 0 10-1.222 1.224c.025.035.053.068.085.1l3.369 3.37a.875.875 0 101.238-1.238l-3.37-3.369a.882.882 0 00-.1-.087zm.226-3.363a4.812 4.812 0 11-9.623 0 4.812 4.812 0 019.623 0z" fill="#969696"/></g><defs><clipPath id="oclip0_2_724"><path fill="#fff" d="M0 0h14v14H0z"/></clipPath></defs></svg><svg viewBox="0 0 1792 1792" id="tel" xmlns="http://www.w3.org/2000/svg"><path d="M1600 1240q0 27-10 70.5t-21 68.5q-21 50-122 106-94 51-186 51-27 0-52.5-3.5T1151 1520t-47.5-14.5-55.5-20.5-49-18q-98-35-175-83-128-79-264.5-215.5T344 904q-48-77-83-175-3-9-18-49t-20.5-55.5T208 577t-12.5-57.5T192 467q0-92 51-186 56-101 106-122 25-11 68.5-21t70.5-10q14 0 21 3 18 6 53 76 11 19 30 54t35 63.5 31 53.5q3 4 17.5 25t21.5 35.5 7 28.5q0 20-28.5 50t-62 55-62 53-28.5 46q0 9 5 22.5t8.5 20.5 14 24 11.5 19q76 137 174 235t235 174q2 1 19 11.5t24 14 20.5 8.5 22.5 5q18 0 46-28.5t53-62 55-62 50-28.5q14 0 28.5 7t35.5 21.5 25 17.5q25 15 53.5 31t63.5 35 54 30q70 35 76 53 3 7 3 21z"/></svg><svg fill="none" viewBox="0 0 34 34" id="telegram" xmlns="http://www.w3.org/2000/svg"><g clip-path="url(#qclip0_3_1969)"><path d="M16.6 0C7.4 0 0 7.4 0 16.6c0 9.2 7.4 16.6 16.6 16.6 9.2 0 16.6-7.4 16.6-16.6C33.2 7.4 25.7 0 16.6 0zm7.9 10.8c0 .7-.4 3-.8 5.6-.6 3.6-1.2 7.5-1.2 7.5s-.1 1.1-.9 1.3c-.8.2-2.2-.7-2.4-.9-.2-.1-3.6-2.3-4.9-3.3-.3-.3-.7-.9 0-1.5 1.7-1.6 3.8-3.5 5-4.8.6-.6 1.2-1.9-1.2-.3L11.3 19s-.8.5-2.2 0C7.7 18.6 6 18 6 18s-1.2-.7.8-1.5c0 0 8.3-3.4 11.2-4.6 1.1-.5 4.8-2 4.8-2s1.8-.7 1.7.9z" fill="#CEB483"/></g><defs><clipPath id="qclip0_3_1969"><path fill="#fff" d="M0 0h33.2v33.2H0z"/></clipPath></defs></svg></svg>